<svg width="72" height="72" viewBox="0 0 72 72" fill="none" xmlns="http://www.w3.org/2000/svg">
<g id="Property 1=user-add">
<path id="Icon" d="M9 33H24M16.5 40.5V25.5M43.5 42C54.8899 42 60.6914 46.0121 62.4279 54.0364C63.1287 57.2751 60.3137 60 57 60H30C26.6863 60 23.8713 57.2752 24.5721 54.0364C26.3086 46.0121 32.1101 42 43.5 42ZM43.5 30C48.5 30 51 27.4286 51 21C51 14.5714 48.5 12 43.5 12C38.5 12 36 14.5714 36 21C36 27.4286 38.5 30 43.5 30Z" stroke="black" stroke-width="2" stroke-linecap="round" stroke-linejoin="round"/>
</g>
</svg>
